<?xml version="1.0" encoding="UTF-8"?>
<svg width="216px" height="77px" viewBox="0 0 216 77" version="1.1" xmlns="http://www.w3.org/2000/svg" xmlns:xlink="http://www.w3.org/1999/xlink">
    <title>Group 3</title>
    <g id="Page-1" stroke="none" stroke-width="1" fill="none" fill-rule="evenodd">
        <g id="Group-3" transform="translate(0, 1)">
            <g id="ficodes-colorido">
                <g id="g14426-3-5" transform="translate(138, 0)">
                    <polygon id="path4498-27-5-5-3-0-9" stroke="#FFFFFF" stroke-width="1.85199994" fill="#000000" stroke-linecap="round" stroke-linejoin="round" points="68 75 0 75 8.94736192 0 64.0631555 37.3239428"></polygon>
                    <rect id="rect4500-7-8-5-4-6-4" fill="#1B7B9A" x="10" y="24" width="10" height="50"></rect>
                    <polygon id="path4502-1-0-4-2-6-9" fill="#F8B338" points="34 24.2222134 42.5 10 51 24.2222134 51 74 34 74"></polygon>
                    <rect id="rect4506-9-4-3-2-8-8" fill-opacity="0.82352941" fill="#7D9137" x="13" y="44" width="25" height="30"></rect>
                    <rect id="rect4504-7-6-2-0-74-8" fill="#B92324" x="53" y="57" width="25" height="17"></rect>
                </g>
                <g id="g6762-8-2-1-5" transform="translate(0, 4)" fill-rule="nonzero">
                    <g id="text4498-0-0-3-0-3-3">
                        <path d="M0,19.387929 L4.22516407,19.387929 L4.22516407,46 L8.20539044,46 C9.12390395,46 9.18513859,45.1355775 9.18513859,44.9503397 L9.18513859,19.387929 L13.6552395,19.387929 C14.6349868,19.387929 14.6962214,19.0792023 14.6962214,15.1275214 L9.18513859,15.1275214 L9.18513859,10.9906114 C9.18513859,5.68054349 12.124383,4.93960988 15.3085643,4.93960988 C16.6557177,4.93960988 18.1865741,5.06309882 19.6561959,5.68054349 C20.023602,4.81612095 20.2073042,3.76645188 20.2073042,2.90202059 C20.2073042,1.35840453 18.2478079,0.370484306 14.5125184,0.370484306 C9.85871529,0.370484306 4.22516407,1.85236027 4.22516407,11.361087 L4.22516407,15.1275214 L1.34715425,15.1275214 C0,15.1275214 0,15.4362481 0,19.387929 L0,19.387929 Z" id="path4560-86-6-9-2-1-4" fill="#1B7B9A"></path>
                        <path d="M17.8105577,9.94094236 C17.8105577,12.8429542 18.7290721,13.7691343 20.3211623,13.8308744 C22.219424,13.8308744 23.1379384,12.3489985 23.1379384,9.81745342 C23.1991678,7.2241683 22.5868301,6.23624807 20.6885675,6.23624807 C18.7290721,6.23624807 17.8717924,7.71812404 17.8105577,9.94094236 L17.8105577,9.94094236 Z M22.8317669,44.9503397 L22.8317669,15.1275214 C18.7903059,15.1275214 17.749324,15.1275214 17.749324,17.4120885 L17.749324,46 C22.7705323,46 22.8317669,46 22.8317669,44.9503397 Z" id="path4562-52-7-2-5-2-7" fill="#1B7B9A"></path>
                        <path d="M43.6380147,16.6711374 C43.6380147,15.0657638 41.4335816,13.8926145 38.5555753,13.8926145 C33.5343661,13.8926145 27.5946434,15.8067061 27.5946434,30.6255008 C27.5946434,43.653684 30.8400593,45.9999912 36.7185474,45.9999912 C40.6987763,45.9999912 43.5155472,44.5181153 43.5155472,42.8510015 C43.5155472,42.0483103 43.3930796,41.1838878 43.025677,40.0724786 C42.045928,40.8134122 40.1476681,41.5543546 38.1881692,41.5543546 C34.5141142,41.5543546 32.738321,39.3315363 32.738321,30.6255008 C32.738321,19.6348981 35.983736,18.3382512 38.8005121,18.3382512 C40.5150707,18.3382512 42.1683955,18.8939557 43.1481446,19.4496603 C43.5155472,18.4 43.6380147,17.3503309 43.6380147,16.6711374 Z" id="path4564-3-9-4-9-1-1" fill="#7F9533"></path>
                        <path d="M45.6482234,29.9462985 C45.6482234,43.838913 49.0161025,45.9999912 55.2619993,45.9999912 C61.8140692,45.9999912 65.365654,41.2456279 65.365654,29.7610695 C65.365654,17.226842 62.2427013,13.8926145 55.8131075,13.8926145 C49.4447433,13.8926145 45.6482234,18.6469779 45.6482234,29.9462985 L45.6482234,29.9462985 Z M51.0368387,30.0697962 C51.0368387,20.4375805 52.9350986,18.2765023 55.6294019,18.2765023 C58.5686489,18.2765023 59.9158006,20.0053649 59.9158006,29.8228096 C59.9158006,39.4550252 58.0175407,41.7395924 55.3844668,41.7395924 C52.6289254,41.7395924 51.0368387,40.2577077 51.0368387,30.0697962 L51.0368387,30.0697962 Z" id="path4566-68-7-4-4-7-1" fill="#7F9533"></path>
                        <path d="M82.6920731,2.28455841 L82.6920731,15.1275126 C81.6510946,14.3248302 80.2427049,13.8926145 78.3444449,13.8926145 C73.0782972,13.8926145 68.9756041,18.8322069 68.9756041,31.0577077 C68.9756041,44.4563664 73.568176,46 78.8955532,46 C82.6920731,46 85.6313201,45.13556 87.6520476,44.1476397 L87.6520476,0 C83.6105926,0 82.6920731,0 82.6920731,2.28455841 Z M82.6920731,19.0791935 L82.6920731,40.5664344 C81.712324,41.2456279 80.4264105,41.4926058 79.0792589,41.4926058 C76.2012412,41.4926058 74.486687,39.7637519 74.486687,30.5020031 C74.486687,20.3758317 77.1809903,18.2765023 79.8753022,18.2765023 C81.1612158,18.2765023 81.8960297,18.4617401 82.6920731,19.0791935 Z" id="path4568-8-2-9-7-4-8" fill="#F8B338"></path>
                        <path d="M103.074479,41.122139 C99.3391883,41.122139 97.5633959,39.3932764 97.3796902,32.8483191 C100.441405,32.7865352 106.136185,32.6630813 110.116419,31.8603989 C110.667527,29.6375805 110.851224,26.5503309 110.851224,23.8335481 C110.851224,17.1650932 108.21815,13.8926145 103.074479,13.8926145 C97.6858634,13.8926145 92.1747806,16.1154328 92.1747806,31.5516722 C92.1747806,43.5919351 96.2774737,45.9999912 101.972262,45.9999912 C106.626063,45.9999912 110.483821,44.5181153 110.483821,42.6040149 C110.483821,41.6160947 110.361354,40.1342187 109.993943,39.2080473 C107.973215,40.3811966 105.523847,41.122139 103.074479,41.122139 Z M102.462132,18.2765023 C105.156444,18.2765023 105.952488,19.9436161 106.013717,24.3892527 C106.013717,25.5624107 105.952444,26.9825466 105.707553,28.0939557 C103.625587,28.7114004 99.767829,28.7731493 97.3796902,28.7731493 C97.7470929,20.4375805 99.951526,18.2765023 102.462132,18.2765023 L102.462132,18.2765023 Z" id="path4570-14-9-9-8-50-2" fill="#F8B338"></path>
                        <path d="M124.284484,13.8926145 C117.42625,13.8926145 114.303297,16.8563752 114.303297,21.1785229 C114.303297,23.2161034 115.038111,25.4389218 117.793652,27.7234802 L123.733376,32.8483191 C125.570406,34.5154328 126.182744,35.9973088 126.182744,37.6644225 C126.182744,40.1342187 124.345722,41.4926058 121.222769,41.4926058 C118.834639,41.4926058 116.875141,40.99865 115.099349,39.948981 C114.425773,40.99865 114.242067,42.1100592 114.242067,42.8510015 C114.242067,45.012071 117.365012,45.9999912 121.712648,45.9999912 C127.958536,45.9999912 131.816294,42.9127416 131.816294,37.4174447 C131.816294,34.3301951 130.836545,32.2926145 128.20348,29.6993206 L122.508692,25.068455 C120.426726,23.2778435 120.059323,22.3516722 120.059323,21.240263 C120.059323,19.3261714 122.018813,18.2765023 124.89683,18.2765023 C127.223731,18.2765023 129.060753,18.7704668 130.897783,19.881876 C131.571359,19.1409336 132,18.1530134 132,17.3503309 C132,16.1154328 130.59161,13.8926145 124.284484,13.8926145 L124.284484,13.8926145 Z" id="path4572-58-1-5-1-5-1" fill="#B92324"></path>
                    </g>
                </g>
            </g>
            <g id="marketplace" transform="translate(2.4794, 54.28)" fill="#000000" fill-rule="nonzero">
                <path d="M14.064,8.184 C14.064,7.4 13.84,6.824 13.392,6.456 C12.944,6.088 12.344,5.904 11.592,5.904 C10.552,5.904 9.624,6.272 8.808,7.008 C8.904,7.328 8.952,7.672 8.952,8.04 L8.952,15.672 C8.872,15.704 8.748,15.74 8.58,15.78 C8.412,15.82 8.24,15.84 8.064,15.84 C7.376,15.84 7.032,15.552 7.032,14.976 L7.032,8.184 C7.032,7.4 6.808,6.824 6.36,6.456 C5.912,6.088 5.304,5.904 4.536,5.904 C4.024,5.904 3.54,5.984 3.084,6.144 C2.628,6.304 2.24,6.488 1.92,6.696 L1.92,15.672 C1.84,15.704 1.72,15.74 1.56,15.78 C1.4,15.82 1.224,15.84 1.032,15.84 C0.344,15.84 0,15.552 0,14.976 L0,6.792 C0,6.472 0.068,6.204 0.204,5.988 C0.34,5.772 0.576,5.552 0.912,5.328 C1.344,5.056 1.892,4.82 2.556,4.62 C3.22,4.42 3.888,4.32 4.56,4.32 C5.344,4.32 6.04,4.436 6.648,4.668 C7.256,4.9 7.72,5.216 8.04,5.616 C8.456,5.248 8.976,4.94 9.6,4.692 C10.224,4.444 10.936,4.32 11.736,4.32 C13.032,4.32 14.064,4.628 14.832,5.244 C15.6,5.86 15.984,6.808 15.984,8.088 L15.984,15.672 C15.904,15.704 15.78,15.74 15.612,15.78 C15.444,15.82 15.272,15.84 15.096,15.84 C14.408,15.84 14.064,15.552 14.064,14.976 L14.064,8.184 Z" id="Path"></path>
                <path d="M22.8582857,14.472 C23.5302857,14.472 24.0862857,14.404 24.5262857,14.268 C24.9662857,14.132 25.2822857,14 25.4742857,13.872 L25.4742857,10.392 L22.4982857,10.704 C21.6662857,10.784 21.0502857,10.972 20.6502857,11.268 C20.2502857,11.564 20.0502857,12 20.0502857,12.576 C20.0502857,13.184 20.2822857,13.652 20.7462857,13.98 C21.2102857,14.308 21.9142857,14.472 22.8582857,14.472 Z M22.8342857,4.32 C24.2262857,4.32 25.3302857,4.632 26.1462857,5.256 C26.9622857,5.88 27.3702857,6.864 27.3702857,8.208 L27.3702857,13.896 C27.3702857,14.248 27.3022857,14.516 27.1662857,14.7 C27.0302857,14.884 26.8262857,15.056 26.5542857,15.216 C26.1702857,15.44 25.6622857,15.636 25.0302857,15.804 C24.3982857,15.972 23.6742857,16.056 22.8582857,16.056 C21.3542857,16.056 20.1902857,15.76 19.3662857,15.168 C18.5422857,14.576 18.1302857,13.72 18.1302857,12.6 C18.1302857,11.544 18.4742857,10.748 19.1622857,10.212 C19.8502857,9.676 20.8182857,9.344 22.0662857,9.216 L25.4742857,8.88 L25.4742857,8.208 C25.4742857,7.408 25.2342857,6.824 24.7542857,6.456 C24.2742857,6.088 23.6262857,5.904 22.8102857,5.904 C22.1382857,5.904 21.5062857,6 20.9142857,6.192 C20.3222857,6.384 19.7942857,6.6 19.3302857,6.84 C19.2022857,6.728 19.0862857,6.6 18.9822857,6.456 C18.8782857,6.312 18.8262857,6.152 18.8262857,5.976 C18.8262857,5.752 18.8822857,5.568 18.9942857,5.424 C19.1062857,5.28 19.2822857,5.144 19.5222857,5.016 C19.9542857,4.792 20.4502857,4.62 21.0102857,4.5 C21.5702857,4.38 22.1782857,4.32 22.8342857,4.32 Z" id="Shape"></path>
                <path d="M32.1085714,15.672 C32.0285714,15.704 31.9085714,15.74 31.7485714,15.78 C31.5885714,15.82 31.4125714,15.84 31.2205714,15.84 C30.5325714,15.84 30.1885714,15.552 30.1885714,14.976 L30.1885714,6.84 C30.1885714,6.472 30.2565714,6.18 30.3925714,5.964 C30.5285714,5.748 30.7565714,5.536 31.0765714,5.328 C31.4925714,5.056 32.0565714,4.82 32.7685714,4.62 C33.4805714,4.42 34.2845714,4.32 35.1805714,4.32 C36.4605714,4.32 37.1005714,4.64 37.1005714,5.28 C37.1005714,5.44 37.0765714,5.588 37.0285714,5.724 C36.9805714,5.86 36.9165714,5.976 36.8365714,6.072 C36.6765714,6.04 36.4685714,6.008 36.2125714,5.976 C35.9565714,5.944 35.7005714,5.928 35.4445714,5.928 C34.7085714,5.928 34.0605714,6.004 33.5005714,6.156 C32.9405714,6.308 32.4765714,6.488 32.1085714,6.696 L32.1085714,15.672 Z" id="Path"></path>
                <path d="M40.6388571,15.672 C40.5588571,15.704 40.4388571,15.74 40.2788571,15.78 C40.1188571,15.82 39.9428571,15.84 39.7508571,15.84 C39.0628571,15.84 38.7188571,15.552 38.7188571,14.976 L38.7188571,0.168 C38.7988571,0.136 38.9228571,0.1 39.0908571,0.06 C39.2588571,0.02 39.4388571,0 39.6308571,0 C40.3028571,0 40.6388571,0.288 40.6388571,0.864 L40.6388571,9.504 L45.8948571,4.416 C46.2788571,4.432 46.5788571,4.524 46.7948571,4.692 C47.0108571,4.86 47.1188571,5.08 47.1188571,5.352 C47.1188571,5.576 47.0468571,5.772 46.9028571,5.94 C46.7588571,6.108 46.5668571,6.304 46.3268571,6.528 L42.4628571,9.912 L47.8148571,14.712 C47.7828571,15.064 47.6748571,15.344 47.4908571,15.552 C47.3068571,15.76 47.0628571,15.864 46.7588571,15.864 C46.5188571,15.864 46.2988571,15.804 46.0988571,15.684 C45.8988571,15.564 45.6948571,15.392 45.4868571,15.168 L40.6388571,10.296 L40.6388571,15.672 Z" id="Path"></path>
                <path d="M50.8011429,11.304 C51.2331429,13.4 52.6091429,14.448 54.9291429,14.448 C55.6011429,14.448 56.2091429,14.336 56.7531429,14.112 C57.2971429,13.888 57.7291429,13.648 58.0491429,13.392 C58.4331429,13.616 58.6251429,13.92 58.6251429,14.304 C58.6251429,14.528 58.5251429,14.744 58.3251429,14.952 C58.1251429,15.16 57.8531429,15.344 57.5091429,15.504 C57.1651429,15.664 56.7651429,15.792 56.3091429,15.888 C55.8531429,15.984 55.3611429,16.032 54.8331429,16.032 C52.9771429,16.032 51.5091429,15.528 50.4291429,14.52 C49.3491429,13.512 48.8091429,12.04 48.8091429,10.104 C48.8091429,9.192 48.9411429,8.38 49.2051429,7.668 C49.4691429,6.956 49.8371429,6.352 50.3091429,5.856 C50.7811429,5.36 51.3451429,4.98 52.0011429,4.716 C52.6571429,4.452 53.3691429,4.32 54.1371429,4.32 C54.8571429,4.32 55.5211429,4.44 56.1291429,4.68 C56.7371429,4.92 57.2611429,5.26 57.7011429,5.7 C58.1411429,6.14 58.4851429,6.66 58.7331429,7.26 C58.9811429,7.86 59.1051429,8.52 59.1051429,9.24 C59.1051429,9.592 59.0251429,9.844 58.8651429,9.996 C58.7051429,10.148 58.4811429,10.24 58.1931429,10.272 L50.8011429,11.304 Z M54.1131429,5.88 C53.1371429,5.88 52.3291429,6.22 51.6891429,6.9 C51.0491429,7.58 50.7131429,8.552 50.6811429,9.816 L57.2811429,8.904 C57.2011429,8.024 56.8931429,7.3 56.3571429,6.732 C55.8211429,6.164 55.0731429,5.88 54.1131429,5.88 Z" id="Shape"></path>
                <path d="M64.9954286,16.032 C63.8754286,16.032 62.9674286,15.784 62.2714286,15.288 C61.5754286,14.792 61.2274286,13.968 61.2274286,12.816 L61.2274286,1.416 C61.3074286,1.384 61.4314286,1.348 61.5994286,1.308 C61.7674286,1.268 61.9474286,1.248 62.1394286,1.248 C62.8114286,1.248 63.1474286,1.536 63.1474286,2.112 L63.1474286,4.872 L67.0834286,4.872 C67.1314286,4.952 67.1794286,5.06 67.2274286,5.196 C67.2754286,5.332 67.2994286,5.48 67.2994286,5.64 C67.2994286,6.184 67.0594286,6.456 66.5794286,6.456 L63.1474286,6.456 L63.1474286,12.696 C63.1474286,13.336 63.3274286,13.788 63.6874286,14.052 C64.0474286,14.316 64.5554286,14.448 65.2114286,14.448 C65.4834286,14.448 65.7874286,14.4 66.1234286,14.304 C66.4594286,14.208 66.7394286,14.096 66.9634286,13.968 C67.0594286,14.064 67.1474286,14.184 67.2274286,14.328 C67.3074286,14.472 67.3474286,14.64 67.3474286,14.832 C67.3474286,15.184 67.1394286,15.472 66.7234286,15.696 C66.3074286,15.92 65.7314286,16.032 64.9954286,16.032 Z" id="Path"></path>
                <path d="M74.1737143,16.032 C73.6137143,16.032 73.0857143,15.968 72.5897143,15.84 C72.0937143,15.712 71.6857143,15.56 71.3657143,15.384 L71.3657143,20.04 C71.2857143,20.072 71.1657143,20.108 71.0057143,20.148 C70.8457143,20.188 70.6697143,20.208 70.4777143,20.208 C69.7897143,20.208 69.4457143,19.912 69.4457143,19.32 L69.4457143,6.648 C69.4457143,6.328 69.5017143,6.072 69.6137143,5.88 C69.7257143,5.688 69.9577143,5.488 70.3097143,5.28 C70.7417143,5.04 71.2577143,4.82 71.8577143,4.62 C72.4577143,4.42 73.1417143,4.32 73.9097143,4.32 C74.6937143,4.32 75.4337143,4.432 76.1297143,4.656 C76.8257143,4.88 77.4257143,5.228 77.9297143,5.7 C78.4337143,6.172 78.8337143,6.776 79.1297143,7.512 C79.4257143,8.248 79.5737143,9.128 79.5737143,10.152 C79.5737143,11.144 79.4417143,12.008 79.1777143,12.744 C78.9137143,13.48 78.5417143,14.092 78.0617143,14.58 C77.5817143,15.068 77.0097143,15.432 76.3457143,15.672 C75.6817143,15.912 74.9577143,16.032 74.1737143,16.032 Z M73.9097143,14.448 C75.0297143,14.448 75.9297143,14.108 76.6097143,13.428 C77.2897143,12.748 77.6297143,11.656 77.6297143,10.152 C77.6297143,9.368 77.5297143,8.704 77.3297143,8.16 C77.1297143,7.616 76.8577143,7.176 76.5137143,6.84 C76.1697143,6.504 75.7737143,6.264 75.3257143,6.12 C74.8777143,5.976 74.4057143,5.904 73.9097143,5.904 C73.3337143,5.904 72.8457143,5.976 72.4457143,6.12 C72.0457143,6.264 71.6857143,6.424 71.3657143,6.6 L71.3657143,13.68 C71.6697143,13.904 72.0297143,14.088 72.4457143,14.232 C72.8617143,14.376 73.3497143,14.448 73.9097143,14.448 Z" id="Shape"></path>
                <path d="M83.976,15.672 C83.896,15.704 83.776,15.74 83.616,15.78 C83.456,15.82 83.28,15.84 83.088,15.84 C82.4,15.84 82.056,15.552 82.056,14.976 L82.056,0.168 C82.136,0.136 82.26,0.1 82.428,0.06 C82.596,0.02 82.768,0 82.944,0 C83.632,0 83.976,0.288 83.976,0.864 L83.976,15.672 Z" id="Path"></path>
                <path d="M91.0422857,14.472 C91.7142857,14.472 92.2702857,14.404 92.7102857,14.268 C93.1502857,14.132 93.4662857,14 93.6582857,13.872 L93.6582857,10.392 L90.6822857,10.704 C89.8502857,10.784 89.2342857,10.972 88.8342857,11.268 C88.4342857,11.564 88.2342857,12 88.2342857,12.576 C88.2342857,13.184 88.4662857,13.652 88.9302857,13.98 C89.3942857,14.308 90.0982857,14.472 91.0422857,14.472 Z M91.0182857,4.32 C92.4102857,4.32 93.5142857,4.632 94.3302857,5.256 C95.1462857,5.88 95.5542857,6.864 95.5542857,8.208 L95.5542857,13.896 C95.5542857,14.248 95.4862857,14.516 95.3502857,14.7 C95.2142857,14.884 95.0102857,15.056 94.7382857,15.216 C94.3542857,15.44 93.8462857,15.636 93.2142857,15.804 C92.5822857,15.972 91.8582857,16.056 91.0422857,16.056 C89.5382857,16.056 88.3742857,15.76 87.5502857,15.168 C86.7262857,14.576 86.3142857,13.72 86.3142857,12.6 C86.3142857,11.544 86.6582857,10.748 87.3462857,10.212 C88.0342857,9.676 89.0022857,9.344 90.2502857,9.216 L93.6582857,8.88 L93.6582857,8.208 C93.6582857,7.408 93.4182857,6.824 92.9382857,6.456 C92.4582857,6.088 91.8102857,5.904 90.9942857,5.904 C90.3222857,5.904 89.6902857,6 89.0982857,6.192 C88.5062857,6.384 87.9782857,6.6 87.5142857,6.84 C87.3862857,6.728 87.2702857,6.6 87.1662857,6.456 C87.0622857,6.312 87.0102857,6.152 87.0102857,5.976 C87.0102857,5.752 87.0662857,5.568 87.1782857,5.424 C87.2902857,5.28 87.4662857,5.144 87.7062857,5.016 C88.1382857,4.792 88.6342857,4.62 89.1942857,4.5 C89.7542857,4.38 90.3622857,4.32 91.0182857,4.32 Z" id="Shape"></path>
                <path d="M103.508571,5.928 C102.964571,5.928 102.460571,6.02 101.996571,6.204 C101.532571,6.388 101.132571,6.66 100.796571,7.02 C100.460571,7.38 100.196571,7.828 100.004571,8.364 C99.8125714,8.9 99.7165714,9.512 99.7165714,10.2 C99.7165714,11.576 100.060571,12.628 100.748571,13.356 C101.436571,14.084 102.356571,14.448 103.508571,14.448 C104.180571,14.448 104.740571,14.356 105.188571,14.172 C105.636571,13.988 106.036571,13.776 106.388571,13.536 C106.564571,13.632 106.708571,13.752 106.820571,13.896 C106.932571,14.04 106.988571,14.216 106.988571,14.424 C106.988571,14.648 106.900571,14.856 106.724571,15.048 C106.548571,15.24 106.304571,15.408 105.992571,15.552 C105.680571,15.696 105.312571,15.812 104.888571,15.9 C104.464571,15.988 104.004571,16.032 103.508571,16.032 C102.676571,16.032 101.908571,15.912 101.204571,15.672 C100.500571,15.432 99.8925714,15.072 99.3805714,14.592 C98.8685714,14.112 98.4685714,13.508 98.1805714,12.78 C97.8925714,12.052 97.7485714,11.192 97.7485714,10.2 C97.7485714,9.224 97.9005714,8.372 98.2045714,7.644 C98.5085714,6.916 98.9165714,6.304 99.4285714,5.808 C99.9405714,5.312 100.544571,4.94 101.240571,4.692 C101.936571,4.444 102.676571,4.32 103.460571,4.32 C103.956571,4.32 104.416571,4.364 104.840571,4.452 C105.264571,4.54 105.628571,4.664 105.932571,4.824 C106.236571,4.984 106.472571,5.164 106.640571,5.364 C106.808571,5.564 106.892571,5.768 106.892571,5.976 C106.892571,6.168 106.836571,6.336 106.724571,6.48 C106.612571,6.624 106.468571,6.736 106.292571,6.816 C105.940571,6.576 105.556571,6.368 105.140571,6.192 C104.724571,6.016 104.180571,5.928 103.508571,5.928 Z" id="Path"></path>
                <path d="M110.238857,11.304 C110.670857,13.4 112.046857,14.448 114.366857,14.448 C115.038857,14.448 115.646857,14.336 116.190857,14.112 C116.734857,13.888 117.166857,13.648 117.486857,13.392 C117.870857,13.616 118.062857,13.92 118.062857,14.304 C118.062857,14.528 117.962857,14.744 117.762857,14.952 C117.562857,15.16 117.290857,15.344 116.946857,15.504 C116.602857,15.664 116.202857,15.792 115.746857,15.888 C115.290857,15.984 114.798857,16.032 114.270857,16.032 C112.414857,16.032 110.946857,15.528 109.866857,14.52 C108.786857,13.512 108.246857,12.04 108.246857,10.104 C108.246857,9.192 108.378857,8.38 108.642857,7.668 C108.906857,6.956 109.274857,6.352 109.746857,5.856 C110.218857,5.36 110.782857,4.98 111.438857,4.716 C112.094857,4.452 112.806857,4.32 113.574857,4.32 C114.294857,4.32 114.958857,4.44 115.566857,4.68 C116.174857,4.92 116.698857,5.26 117.138857,5.7 C117.578857,6.14 117.922857,6.66 118.170857,7.26 C118.418857,7.86 118.542857,8.52 118.542857,9.24 C118.542857,9.592 118.462857,9.844 118.302857,9.996 C118.142857,10.148 117.918857,10.24 117.630857,10.272 L110.238857,11.304 Z M113.550857,5.88 C112.574857,5.88 111.766857,6.22 111.126857,6.9 C110.486857,7.58 110.150857,8.552 110.118857,9.816 L116.718857,8.904 C116.638857,8.024 116.330857,7.3 115.794857,6.732 C115.258857,6.164 114.510857,5.88 113.550857,5.88 Z" id="Shape"></path>
            </g>
        </g>
    </g>
</svg>