<?xml version="1.0" encoding="UTF-8"?>
<svg width="312px" height="35px" viewBox="0 0 312 35" version="1.1" xmlns="http://www.w3.org/2000/svg" xmlns:xlink="http://www.w3.org/1999/xlink">
    <title>Group 2</title>
    <g id="Page-1" stroke="none" stroke-width="1" fill="none" fill-rule="evenodd">
        <g id="Group-2" fill="#FFFFFF" fill-rule="nonzero">
            <g id="Group">
                <path d="M59.694,21.46 L56.428,21.46 C49.467,21.46 48.9,17.76 48.9,13.288 C48.9,8.817 49.467,5.116 56.428,5.116 L59.694,5.116 C66.656,5.116 67.223,8.818 67.223,13.288 C67.223,17.76 66.656,21.46 59.694,21.46 Z M59.694,1.77635684e-15 L56.428,1.77635684e-15 C47.449,1.77635684e-15 43.084,4.347 43.084,13.288 C43.084,22.23 47.451,26.578 56.428,26.578 L59.694,26.578 C68.675,26.578 73.038,22.23 73.038,13.288 C73.038,4.347 68.673,1.77635684e-15 59.694,1.77635684e-15 Z M24.747,20.997 L16.976,20.997 L16.976,5.58 L24.747,5.58 C32.753,5.58 33.551,7.811 33.551,13.288 C33.548,19.167 32.333,20.997 24.747,20.997 Z M24.747,0.429 L11.316,0.429 L11.316,26.147 L24.744,26.147 C35.528,26.147 39.3480013,22.781 39.3480013,13.288 C39.35,5.144 36.961,0.429 24.747,0.429 Z M106.067,1.77635684e-15 C102.444,0.053 98.562,1.316 97.515,4.542 C96.469,1.316 92.584,0.053 88.957,1.77635684e-15 C81.076,1.77635684e-15 77.643,3.136 77.643,9.709 L77.643,26.147 L83.302,26.147 L83.302,9.709 C83.302,6.65 84.538,5.114 89.004,5.114 C92.637,5.114 94.684,6.616 94.684,9.806 L94.684,26.146 L100.345,26.146 L100.345,9.808 C100.345,6.618 102.389,5.116 106.024,5.116 C110.492,5.116 111.726,6.652 111.726,9.711 L111.726,26.147 L117.387,26.147 L117.387,9.709 C117.383,3.136 113.95,1.77635684e-15 106.067,1.77635684e-15 Z M0,26.147 L5.659,26.147 L5.659,0.429 L0,0.429 L0,26.147 Z" id="Fill-6"></path>
            </g>
            <g id="marketplace" transform="translate(128.2643, 3.57)">
                <path d="M21.54,23.46 C21.1,23.46 20.735,23.315 20.445,23.025 C20.155,22.735 20.01,22.37 20.01,21.93 L20.01,13.35 C20.01,12.09 19.7,11.155 19.08,10.545 C18.46,9.935 17.65,9.63 16.65,9.63 C15.61,9.63 14.755,9.99 14.085,10.71 C13.415,11.43 13.08,12.35 13.08,13.47 L10.59,13.47 C10.59,12.17 10.87,11.025 11.43,10.035 C11.99,9.045 12.775,8.27 13.785,7.71 C14.795,7.15 15.95,6.87 17.25,6.87 C18.39,6.87 19.4,7.12 20.28,7.62 C21.16,8.12 21.845,8.855 22.335,9.825 C22.825,10.795 23.07,11.97 23.07,13.35 L23.07,21.93 C23.07,22.37 22.93,22.735 22.65,23.025 C22.37,23.315 22,23.46 21.54,23.46 Z M1.53,23.46 C1.09,23.46 0.725,23.315 0.435,23.025 C0.145,22.735 0,22.37 0,21.93 L0,8.58 C0,8.12 0.145,7.75 0.435,7.47 C0.725,7.19 1.09,7.05 1.53,7.05 C1.99,7.05 2.36,7.19 2.64,7.47 C2.92,7.75 3.06,8.12 3.06,8.58 L3.06,21.93 C3.06,22.37 2.92,22.735 2.64,23.025 C2.36,23.315 1.99,23.46 1.53,23.46 Z M11.55,23.46 C11.11,23.46 10.745,23.315 10.455,23.025 C10.165,22.735 10.02,22.37 10.02,21.93 L10.02,13.35 C10.02,12.09 9.71,11.155 9.09,10.545 C8.47,9.935 7.66,9.63 6.66,9.63 C5.62,9.63 4.76,9.99 4.08,10.71 C3.4,11.43 3.06,12.35 3.06,13.47 L1.17,13.47 C1.17,12.17 1.43,11.025 1.95,10.035 C2.47,9.045 3.19,8.27 4.11,7.71 C5.03,7.15 6.08,6.87 7.26,6.87 C8.4,6.87 9.41,7.12 10.29,7.62 C11.17,8.12 11.855,8.855 12.345,9.825 C12.835,10.795 13.08,11.97 13.08,13.35 L13.08,21.93 C13.08,22.37 12.94,22.735 12.66,23.025 C12.38,23.315 12.01,23.46 11.55,23.46 Z" id="Shape"></path>
                <path d="M34.1228571,23.55 C32.6628571,23.55 31.3544196,23.1867969 30.1975446,22.4603906 C29.0406696,21.7339844 28.1256696,20.7439844 27.4525446,19.4903906 C26.7794196,18.2367969 26.4428571,16.8228125 26.4428571,15.2484375 C26.4428571,13.6540625 26.8078571,12.2290625 27.5378571,10.9734375 C28.2678571,9.7178125 29.2566853,8.725 30.5043415,7.995 C31.7519978,7.265 33.1581696,6.9 34.7228571,6.9 C36.2872321,6.9 37.6883259,7.265 38.9261384,7.995 C40.1639509,8.725 41.1478571,9.72 41.8778571,10.98 C42.6078571,12.24 42.9728571,13.66 42.9728571,15.24 L41.8028571,15.24 C41.8028571,16.8103125 41.466529,18.2225781 40.7938728,19.4767969 C40.1212165,20.7310156 39.2076228,21.7234375 38.0530915,22.4540625 C36.8985603,23.1846875 35.5884821,23.55 34.1228571,23.55 Z M34.7228571,20.85 C35.7428571,20.85 36.6528571,20.605 37.4528571,20.115 C38.2528571,19.625 38.8828571,18.9538281 39.3428571,18.1014844 C39.8028571,17.2491406 40.0328571,16.2935938 40.0328571,15.2348438 C40.0328571,14.1582813 39.8028571,13.195 39.3428571,12.345 C38.8828571,11.495 38.2530915,10.825 37.4535603,10.335 C36.654029,9.845 35.7445759,9.6 34.7252009,9.6 C33.7236384,9.6 32.8178571,9.845 32.0078571,10.335 C31.1978571,10.825 30.5578571,11.4936719 30.0878571,12.3410156 C29.6178571,13.1883594 29.3828571,14.1528125 29.3828571,15.234375 C29.3828571,16.298125 29.6178571,17.255 30.0878571,18.105 C30.5578571,18.955 31.1973103,19.625 32.0062165,20.115 C32.8151228,20.605 33.7206696,20.85 34.7228571,20.85 Z M41.4475446,23.46 C41.0044196,23.46 40.6378571,23.315 40.3478571,23.025 C40.0578571,22.735 39.9128571,22.37 39.9128571,21.93 L39.9128571,17.34 L40.4828571,14.16 L42.9728571,15.24 L42.9728571,21.93 C42.9728571,22.37 42.8294978,22.735 42.542779,23.025 C42.2560603,23.315 41.8909821,23.46 41.4475446,23.46 Z" id="Shape"></path>
                <path d="M48.1457143,13.17 C48.1457143,11.97 48.4407143,10.895 49.0307143,9.945 C49.6207143,8.995 50.4157143,8.24 51.4157143,7.68 C52.4157143,7.12 53.5157143,6.84 54.7157143,6.84 C55.9157143,6.84 56.8107143,7.035 57.4007143,7.425 C57.9907143,7.815 58.2157143,8.28 58.0757143,8.82 C58.0157143,9.1 57.9007143,9.315 57.7307143,9.465 C57.5607143,9.615 57.3657143,9.71 57.1457143,9.75 C56.9257143,9.79 56.6857143,9.78 56.4257143,9.72 C55.1457143,9.46 53.9957143,9.44 52.9757143,9.66 C51.9557143,9.88 51.1507143,10.29 50.5607143,10.89 C49.9707143,11.49 49.6757143,12.25 49.6757143,13.17 L48.1457143,13.17 Z M48.1757143,23.43 C47.6957143,23.43 47.3257143,23.305 47.0657143,23.055 C46.8057143,22.805 46.6757143,22.43 46.6757143,21.93 L46.6757143,8.52 C46.6757143,8.04 46.8057143,7.67 47.0657143,7.41 C47.3257143,7.15 47.6957143,7.02 48.1757143,7.02 C48.6757143,7.02 49.0507143,7.145 49.3007143,7.395 C49.5507143,7.645 49.6757143,8.02 49.6757143,8.52 L49.6757143,21.93 C49.6757143,22.41 49.5507143,22.78 49.3007143,23.04 C49.0507143,23.3 48.6757143,23.43 48.1757143,23.43 Z" id="Shape"></path>
                <path d="M63.2785714,17.43 L61.4185714,15.39 L70.6285714,7.17 C70.9285714,6.89 71.2635714,6.76 71.6335714,6.78 C72.0035714,6.8 72.3185714,6.96 72.5785714,7.26 C72.8585714,7.56 72.9885714,7.89 72.9685714,8.25 C72.9485714,8.61 72.7885714,8.93 72.4885714,9.21 L63.2785714,17.43 Z M61.8685714,23.43 C61.4285714,23.43 61.0735714,23.295 60.8035714,23.025 C60.5335714,22.755 60.3985714,22.4 60.3985714,21.96 L60.3985714,1.47 C60.3985714,1.03 60.5335714,0.675 60.8035714,0.405 C61.0735714,0.135 61.4285714,0 61.8685714,0 C62.3085714,0 62.6635714,0.135 62.9335714,0.405 C63.2035714,0.675 63.3385714,1.03 63.3385714,1.47 L63.3385714,21.96 C63.3385714,22.4 63.2035714,22.755 62.9335714,23.025 C62.6635714,23.295 62.3085714,23.43 61.8685714,23.43 Z M72.5785714,23.28 C72.2585714,23.54 71.9035714,23.655 71.5135714,23.625 C71.1235714,23.595 70.7985714,23.42 70.5385714,23.1 L64.4485714,15.57 L66.5485714,13.59 L72.7885714,21.27 C73.0485714,21.59 73.1635714,21.935 73.1335714,22.305 C73.1035714,22.675 72.9185714,23 72.5785714,23.28 Z" id="Shape"></path>
                <path d="M82.8214286,23.55 C81.1614286,23.55 79.6864286,23.195 78.3964286,22.485 C77.1064286,21.775 76.0964286,20.795 75.3664286,19.545 C74.6364286,18.295 74.2714286,16.86 74.2714286,15.24 C74.2714286,13.6 74.6164286,12.155 75.3064286,10.905 C75.9964286,9.655 76.9514286,8.675 78.1714286,7.965 C79.3914286,7.255 80.7914286,6.9 82.3714286,6.9 C83.9314286,6.9 85.2714286,7.245 86.3914286,7.935 C87.5114286,8.625 88.3664286,9.575 88.9564286,10.785 C89.5464286,11.995 89.8414286,13.39 89.8414286,14.97 C89.8414286,15.35 89.7114286,15.665 89.4514286,15.915 C89.1914286,16.165 88.8614286,16.29 88.4614286,16.29 L76.3714286,16.29 L76.3714286,13.89 L88.3714286,13.89 L87.1414286,14.73 C87.1214286,13.73 86.9214286,12.835 86.5414286,12.045 C86.1614286,11.255 85.6214286,10.63 84.9214286,10.17 C84.2214286,9.71 83.3714286,9.48 82.3714286,9.48 C81.2314286,9.48 80.2564286,9.73 79.4464286,10.23 C78.6364286,10.73 78.0214286,11.415 77.6014286,12.285 C77.1814286,13.155 76.9714286,14.14 76.9714286,15.24 C76.9714286,16.34 77.2214286,17.32 77.7214286,18.18 C78.2214286,19.04 78.9114286,19.72 79.7914286,20.22 C80.6714286,20.72 81.6814286,20.97 82.8214286,20.97 C83.4414286,20.97 84.0764286,20.855 84.7264286,20.625 C85.3764286,20.395 85.9014286,20.13 86.3014286,19.83 C86.6014286,19.61 86.9264286,19.495 87.2764286,19.485 C87.6264286,19.475 87.9314286,19.58 88.1914286,19.8 C88.5314286,20.1 88.7114286,20.43 88.7314286,20.79 C88.7514286,21.15 88.5914286,21.46 88.2514286,21.72 C87.5714286,22.26 86.7264286,22.7 85.7164286,23.04 C84.7064286,23.38 83.7414286,23.55 82.8214286,23.55 Z" id="Path"></path>
                <path d="M98.8542857,23.43 C97.8542857,23.43 96.9542857,23.175 96.1542857,22.665 C95.3542857,22.155 94.7242857,21.46 94.2642857,20.58 C93.8042857,19.7 93.5742857,18.71 93.5742857,17.61 L93.5742857,3.3 C93.5742857,2.86 93.7142857,2.5 93.9942857,2.22 C94.2742857,1.94 94.6342857,1.8 95.0742857,1.8 C95.5142857,1.8 95.8742857,1.94 96.1542857,2.22 C96.4342857,2.5 96.5742857,2.86 96.5742857,3.3 L96.5742857,17.61 C96.5742857,18.41 96.7942857,19.08 97.2342857,19.62 C97.6742857,20.16 98.2142857,20.43 98.8542857,20.43 L99.8742857,20.43 C100.234286,20.43 100.539286,20.57 100.789286,20.85 C101.039286,21.13 101.164286,21.49 101.164286,21.93 C101.164286,22.37 100.999286,22.73 100.669286,23.01 C100.339286,23.29 99.9142857,23.43 99.3942857,23.43 L98.8542857,23.43 Z M92.1942857,10.2 C91.7742857,10.2 91.4342857,10.08 91.1742857,9.84 C90.9142857,9.6 90.7842857,9.3 90.7842857,8.94 C90.7842857,8.54 90.9142857,8.22 91.1742857,7.98 C91.4342857,7.74 91.7742857,7.62 92.1942857,7.62 L99.1242857,7.62 C99.5442857,7.62 99.8842857,7.74 100.144286,7.98 C100.404286,8.22 100.534286,8.54 100.534286,8.94 C100.534286,9.3 100.404286,9.6 100.144286,9.84 C99.8842857,10.08 99.5442857,10.2 99.1242857,10.2 L92.1942857,10.2 Z" id="Shape"></path>
                <path d="M105.587143,30.45 C105.147143,30.45 104.782143,30.305 104.492143,30.015 C104.202143,29.725 104.057143,29.36 104.057143,28.92 L104.057143,15.24 C104.07683,13.663125 104.448627,12.2428125 105.172533,10.9790625 C105.89644,9.7153125 106.878158,8.71953125 108.11769,7.99171875 C109.357221,7.26390625 110.750424,6.9 112.297299,6.9 C113.883862,6.9 115.297143,7.265 116.537143,7.995 C117.777143,8.725 118.762143,9.7178125 119.492143,10.9734375 C120.222143,12.2290625 120.587143,13.6540625 120.587143,15.2484375 C120.587143,16.8228125 120.25058,18.2367969 119.577455,19.4903906 C118.90433,20.7439844 117.98933,21.7339844 116.832455,22.4603906 C115.67558,23.1867969 114.367143,23.55 112.907143,23.55 C111.727143,23.55 110.642143,23.305 109.652143,22.815 C108.662143,22.325 107.817143,21.66 107.117143,20.82 L107.117143,28.92 C107.117143,29.36 106.976205,29.725 106.69433,30.015 C106.412455,30.305 106.043393,30.45 105.587143,30.45 Z M112.305268,20.85 C113.326518,20.85 114.237143,20.605 115.037143,20.115 C115.837143,19.625 116.472143,18.9538281 116.942143,18.1014844 C117.412143,17.2491406 117.647143,16.2935938 117.647143,15.2348438 C117.647143,14.1582813 117.412143,13.195 116.942143,12.345 C116.472143,11.495 115.834955,10.825 115.03058,10.335 C114.226205,9.845 113.31683,9.6 112.302455,9.6 C111.30558,9.6 110.40144,9.84726563 109.590033,10.3417969 C108.778627,10.8363281 108.143627,11.50625 107.685033,12.3515625 C107.22644,13.196875 106.997143,14.1590625 106.997143,15.238125 C106.997143,16.299375 107.226049,17.2571875 107.683862,18.1115625 C108.141674,18.9659375 108.775502,19.6359375 109.585346,20.1215625 C110.39519,20.6071875 111.30183,20.85 112.305268,20.85 Z" id="Shape"></path>
                <path d="M128.19,23.43 C127.31,23.43 126.53,23.19 125.85,22.71 C125.17,22.23 124.64,21.5757813 124.26,20.7473437 C123.88,19.9189063 123.69,18.963125 123.69,17.88 L123.69,1.5 C123.69,1.0525 123.828125,0.690625 124.104375,0.414375 C124.380625,0.138125 124.7425,0 125.19,0 C125.6375,0 125.999375,0.138125 126.275625,0.414375 C126.551875,0.690625 126.69,1.0525 126.69,1.5 L126.69,17.88 C126.69,18.62 126.831094,19.23 127.113281,19.71 C127.395469,20.19 127.754375,20.43 128.19,20.43 L128.94,20.43 C129.349063,20.43 129.676328,20.568125 129.921797,20.844375 C130.167266,21.120625 130.29,21.4825 130.29,21.93 C130.29,22.3775 130.101094,22.739375 129.723281,23.015625 C129.345469,23.291875 128.854375,23.43 128.25,23.43 L128.19,23.43 Z" id="Path"></path>
                <path d="M138.372857,23.55 C136.912857,23.55 135.60442,23.1867969 134.447545,22.4603906 C133.29067,21.7339844 132.37567,20.7439844 131.702545,19.4903906 C131.02942,18.2367969 130.692857,16.8228125 130.692857,15.2484375 C130.692857,13.6540625 131.057857,12.2290625 131.787857,10.9734375 C132.517857,9.7178125 133.506685,8.725 134.754342,7.995 C136.001998,7.265 137.40817,6.9 138.972857,6.9 C140.537232,6.9 141.938326,7.265 143.176138,7.995 C144.413951,8.725 145.397857,9.72 146.127857,10.98 C146.857857,12.24 147.222857,13.66 147.222857,15.24 L146.052857,15.24 C146.052857,16.8103125 145.716529,18.2225781 145.043873,19.4767969 C144.371217,20.7310156 143.457623,21.7234375 142.303092,22.4540625 C141.14856,23.1846875 139.838482,23.55 138.372857,23.55 Z M138.972857,20.85 C139.992857,20.85 140.902857,20.605 141.702857,20.115 C142.502857,19.625 143.132857,18.9538281 143.592857,18.1014844 C144.052857,17.2491406 144.282857,16.2935938 144.282857,15.2348438 C144.282857,14.1582813 144.052857,13.195 143.592857,12.345 C143.132857,11.495 142.503092,10.825 141.70356,10.335 C140.904029,9.845 139.994576,9.6 138.975201,9.6 C137.973638,9.6 137.067857,9.845 136.257857,10.335 C135.447857,10.825 134.807857,11.4936719 134.337857,12.3410156 C133.867857,13.1883594 133.632857,14.1528125 133.632857,15.234375 C133.632857,16.298125 133.867857,17.255 134.337857,18.105 C134.807857,18.955 135.44731,19.625 136.256217,20.115 C137.065123,20.605 137.97067,20.85 138.972857,20.85 Z M145.697545,23.46 C145.25442,23.46 144.887857,23.315 144.597857,23.025 C144.307857,22.735 144.162857,22.37 144.162857,21.93 L144.162857,17.34 L144.732857,14.16 L147.222857,15.24 L147.222857,21.93 C147.222857,22.37 147.079498,22.735 146.792779,23.025 C146.50606,23.315 146.140982,23.46 145.697545,23.46 Z" id="Shape"></path>
                <path d="M158.365714,23.55 C156.765714,23.55 155.340714,23.185 154.090714,22.455 C152.840714,21.725 151.860714,20.735 151.150714,19.485 C150.440714,18.235 150.085714,16.82 150.085714,15.24 C150.085714,13.62 150.435714,12.18 151.135714,10.92 C151.835714,9.66 152.795714,8.675 154.015714,7.965 C155.235714,7.255 156.635714,6.9 158.215714,6.9 C159.395714,6.9 160.475714,7.125 161.455714,7.575 C162.435714,8.025 163.315714,8.7 164.095714,9.6 C164.375714,9.92 164.475714,10.25 164.395714,10.59 C164.315714,10.93 164.095714,11.23 163.735714,11.49 C163.455714,11.69 163.145714,11.755 162.805714,11.685 C162.465714,11.615 162.155714,11.44 161.875714,11.16 C160.895714,10.12 159.675714,9.6 158.215714,9.6 C157.195714,9.6 156.295714,9.835 155.515714,10.305 C154.735714,10.775 154.125714,11.43 153.685714,12.27 C153.245714,13.11 153.025714,14.1 153.025714,15.24 C153.025714,16.32 153.250714,17.28 153.700714,18.12 C154.150714,18.96 154.775714,19.625 155.575714,20.115 C156.375714,20.605 157.305714,20.85 158.365714,20.85 C159.065714,20.85 159.680714,20.765 160.210714,20.595 C160.740714,20.425 161.225714,20.16 161.665714,19.8 C161.985714,19.54 162.315714,19.395 162.655714,19.365 C162.995714,19.335 163.295714,19.43 163.555714,19.65 C163.895714,19.93 164.085714,20.245 164.125714,20.595 C164.165714,20.945 164.045714,21.26 163.765714,21.54 C162.325714,22.88 160.525714,23.55 158.365714,23.55 Z" id="Path"></path>
                <path d="M175.808571,23.55 C174.148571,23.55 172.673571,23.195 171.383571,22.485 C170.093571,21.775 169.083571,20.795 168.353571,19.545 C167.623571,18.295 167.258571,16.86 167.258571,15.24 C167.258571,13.6 167.603571,12.155 168.293571,10.905 C168.983571,9.655 169.938571,8.675 171.158571,7.965 C172.378571,7.255 173.778571,6.9 175.358571,6.9 C176.918571,6.9 178.258571,7.245 179.378571,7.935 C180.498571,8.625 181.353571,9.575 181.943571,10.785 C182.533571,11.995 182.828571,13.39 182.828571,14.97 C182.828571,15.35 182.698571,15.665 182.438571,15.915 C182.178571,16.165 181.848571,16.29 181.448571,16.29 L169.358571,16.29 L169.358571,13.89 L181.358571,13.89 L180.128571,14.73 C180.108571,13.73 179.908571,12.835 179.528571,12.045 C179.148571,11.255 178.608571,10.63 177.908571,10.17 C177.208571,9.71 176.358571,9.48 175.358571,9.48 C174.218571,9.48 173.243571,9.73 172.433571,10.23 C171.623571,10.73 171.008571,11.415 170.588571,12.285 C170.168571,13.155 169.958571,14.14 169.958571,15.24 C169.958571,16.34 170.208571,17.32 170.708571,18.18 C171.208571,19.04 171.898571,19.72 172.778571,20.22 C173.658571,20.72 174.668571,20.97 175.808571,20.97 C176.428571,20.97 177.063571,20.855 177.713571,20.625 C178.363571,20.395 178.888571,20.13 179.288571,19.83 C179.588571,19.61 179.913571,19.495 180.263571,19.485 C180.613571,19.475 180.918571,19.58 181.178571,19.8 C181.518571,20.1 181.698571,20.43 181.718571,20.79 C181.738571,21.15 181.578571,21.46 181.238571,21.72 C180.558571,22.26 179.713571,22.7 178.703571,23.04 C177.693571,23.38 176.728571,23.55 175.808571,23.55 Z" id="Path"></path>
            </g>
        </g>
    </g>
</svg>